<?xml version="1.0" encoding="utf-8"?>
<!-- Generator: Adobe Illustrator 16.0.0, SVG Export Plug-In . SVG Version: 6.00 Build 0)  -->
<!DOCTYPE svg PUBLIC "-//W3C//DTD SVG 1.1//EN" "http://www.w3.org/Graphics/SVG/1.1/DTD/svg11.dtd">
<svg version="1.1" id="Layer_1" xmlns="http://www.w3.org/2000/svg" xmlns:xlink="http://www.w3.org/1999/xlink" x="0px" y="0px"
	 width="192px" height="96px" viewBox="0 0 192 96" enable-background="new 0 0 192 96" xml:space="preserve">
<circle fill="#3B5998" cx="16" cy="80.3" r="16"/>
<text transform="matrix(1 0 0 1 10 87.25)" fill="#FFFFFF" font-family="'FontAwesome'" font-size="18"></text>
<circle fill="#55ACEE" cx="48" cy="80.3" r="16"/>
<text transform="matrix(1 0 0 1 40 87.25)" fill="#FFFFFF" font-family="'FontAwesome'" font-size="18"></text>
<circle fill="#385774" cx="80" cy="80.3" r="16"/>
<text transform="matrix(1 0 0 1 75 87.25)" fill="#FFFFFF" font-family="'FontAwesome'" font-size="17"></text>
<circle fill="#CC181E" cx="112" cy="80.3" r="16"/>
<circle fill="#EA4C89" cx="144" cy="80.3" r="16"/>
<text transform="matrix(1 0 0 1 104 86.25)" fill="#FFFFFF" font-family="'FontAwesome'" font-size="16"></text>
<text transform="matrix(1 0 0 1 136 87.25)" fill="#FFFFFF" font-family="'FontAwesome'" font-size="19"></text>
<circle fill="#00BF8F" cx="16" cy="48.3" r="16"/>
<circle fill="#FF5500" cx="48" cy="48.3" r="16"/>
<circle fill="#445566" cx="80" cy="48.3" r="16"/>
<text transform="matrix(1 0 0 1 8 56.25)" fill="#FFFFFF" font-family="'FontAwesome'" font-size="18"></text>
<text transform="matrix(1 0 0 1 37 53.25)" fill="#FFFFFF" font-family="'FontAwesome'" font-size="16.5"></text>
<rect x="71" y="43" fill="#FFFFFF" width="18" height="13"/>
<text transform="matrix(1 0 0 1 70 57.25)" fill="#445566" font-family="'FontAwesome'" font-size="24"></text>
<circle fill="#1769FF" cx="112" cy="48.3" r="16"/>
<circle fill="#0073B2" cx="144" cy="48.3" r="16"/>
<text transform="matrix(1 0 0 1 103 54.25)" fill="#FFFFFF" font-family="'FontAwesome'" font-size="16"></text>
<text transform="matrix(1 0 0 1 137 54.25)" fill="#FFFFFF" font-family="'FontAwesome'" font-size="17"></text>
<circle fill="#CA1F26" cx="48" cy="16.3" r="16"/>
<circle fill="#FB7629" cx="16" cy="16.3" r="16"/>
<text transform="matrix(1 0 0 1 10 22.25)" fill="#FFFFFF" font-family="'FontAwesome'" font-size="16"></text>
<circle fill="#FFFFFF" cx="47.6" cy="15.7" r="9"/>
<text transform="matrix(1 0 0 1 38 24.25)" fill="#CA1F26" font-family="'FontAwesome'" font-size="24.5003"></text>
<circle fill="#222222" cx="112" cy="16.3" r="16"/>
<text transform="matrix(1 0 0 1 103 23.25)" fill="#FFFFFF" font-family="'FontAwesome'" font-size="18"></text>
<circle fill="#FFFFFF" cx="144" cy="16.3" r="16"/>
<text transform="matrix(1 0 0 1 136 22.25)" fill="#202021" font-family="'FontAwesome'" font-size="17"></text>
<circle fill="#1A5891" cx="176" cy="16.3" r="16"/>
<circle fill="#EA4B24" cx="80" cy="16.3" r="16"/>
<circle fill="#4374E0" cx="176" cy="80.3" r="16"/>
<circle fill="#6DA1D1" cx="176" cy="48.3" r="16"/>
<text transform="matrix(1 0 0 1 165 22.25)" fill="#FFFFFF" font-family="'FontAwesome'" font-size="18"></text>
<text transform="matrix(1 0 0 1 164 88.25)" fill="#FFFFFF" font-family="'FontAwesome'" font-size="18"> </text>
<text transform="matrix(1 0 0 1 70 22.25)" fill="#FFFFFF" font-family="'FontAwesome'" font-size="18"></text>
<text transform="matrix(1 0 0 1 166 54.25)" fill="#FFFFFF" font-family="'FontAwesome'" font-size="18"></text>
<rect x="38" y="9" fill="#CA1F26" width="2" height="13"/>
<rect x="39" y="20" fill="#CA1F26" width="5" height="6"/>
</svg>
