<?xml version="1.0" encoding="utf-8"?>
<!-- Generator: Adobe Illustrator 16.0.0, SVG Export Plug-In . SVG Version: 6.00 Build 0)  -->
<!DOCTYPE svg PUBLIC "-//W3C//DTD SVG 1.1//EN" "http://www.w3.org/Graphics/SVG/1.1/DTD/svg11.dtd">
<svg version="1.1" id="Layer_1" xmlns="http://www.w3.org/2000/svg" xmlns:xlink="http://www.w3.org/1999/xlink" x="0px" y="0px"
	 width="45px" height="45px" viewBox="0 0 45 45" enable-background="new 0 0 45 45" xml:space="preserve">
<g>
	<path fill="#FFFFFF" d="M43,41.8c0,1.8-1.4,3.2-3.2,3.2H5.2C3.4,45,2,43.5,2,41.8V3.2C2,1.5,3.4,0,5.2,0h34.7C41.6,0,43,1.5,43,3.2
		V41.8z M39.8,4.8c0-0.9-0.7-1.6-1.6-1.6H6.7c-0.9,0-1.6,0.7-1.6,1.6v6.4c0,0.9,0.7,1.6,1.6,1.6h31.5c0.9,0,1.6-0.7,1.6-1.6V4.8z
		 M8.3,16.1c-1.7,0-3.2,1.4-3.2,3.2c0,1.8,1.4,3.2,3.2,3.2c1.7,0,3.2-1.4,3.2-3.2C11.5,17.5,10.1,16.1,8.3,16.1z M8.3,25.7
		c-1.7,0-3.2,1.4-3.2,3.2c0,1.8,1.4,3.2,3.2,3.2c1.7,0,3.2-1.4,3.2-3.2C11.5,27.1,10.1,25.7,8.3,25.7z M8.3,35.4
		c-1.7,0-3.2,1.4-3.2,3.2c0,1.8,1.4,3.2,3.2,3.2c1.7,0,3.2-1.4,3.2-3.2C11.5,36.8,10.1,35.4,8.3,35.4z M17.8,16.1
		c-1.8,0-3.2,1.4-3.2,3.2c0,1.8,1.4,3.2,3.2,3.2c1.7,0,3.2-1.4,3.2-3.2C20.9,17.5,19.5,16.1,17.8,16.1z M17.8,25.7
		c-1.8,0-3.2,1.4-3.2,3.2c0,1.8,1.4,3.2,3.2,3.2c1.7,0,3.2-1.4,3.2-3.2C20.9,27.1,19.5,25.7,17.8,25.7z M17.8,35.4
		c-1.8,0-3.2,1.4-3.2,3.2c0,1.8,1.4,3.2,3.2,3.2c1.7,0,3.2-1.4,3.2-3.2C20.9,36.8,19.5,35.4,17.8,35.4z M27.2,16.1
		c-1.8,0-3.2,1.4-3.2,3.2c0,1.8,1.4,3.2,3.2,3.2c1.7,0,3.2-1.4,3.2-3.2C30.4,17.5,29,16.1,27.2,16.1z M27.2,25.7
		c-1.8,0-3.2,1.4-3.2,3.2c0,1.8,1.4,3.2,3.2,3.2c1.7,0,3.2-1.4,3.2-3.2C30.4,27.1,29,25.7,27.2,25.7z M27.2,35.4
		c-1.8,0-3.2,1.4-3.2,3.2c0,1.8,1.4,3.2,3.2,3.2c1.7,0,3.2-1.4,3.2-3.2C30.4,36.8,29,35.4,27.2,35.4z M36.7,16.1
		c-1.7,0-3.1,1.4-3.1,3.2c0,1.8,1.4,3.2,3.1,3.2c1.8,0,3.2-1.4,3.2-3.2C39.8,17.5,38.4,16.1,36.7,16.1z M39.8,28.9
		c0-1.8-1.4-3.2-3.2-3.2s-3.1,1.5-3.1,3.2v9.6c0,1.8,1.4,3.2,3.1,3.2s3.2-1.5,3.2-3.2V28.9z"/>
</g>
<g>
</g>
<g>
</g>
<g>
</g>
<g>
</g>
<g>
</g>
<g>
</g>
<g>
</g>
<g>
</g>
<g>
</g>
<g>
</g>
<g>
</g>
<g>
</g>
<g>
</g>
<g>
</g>
<g>
</g>
</svg>
