<?xml version="1.0" encoding="utf-8"?>
<!-- Generator: Adobe Illustrator 16.0.0, SVG Export Plug-In . SVG Version: 6.00 Build 0)  -->
<!DOCTYPE svg PUBLIC "-//W3C//DTD SVG 1.1//EN" "http://www.w3.org/Graphics/SVG/1.1/DTD/svg11.dtd">
<svg version="1.1" id="Layer_1" xmlns="http://www.w3.org/2000/svg" xmlns:xlink="http://www.w3.org/1999/xlink" x="0px" y="0px"
	 width="45px" height="45px" viewBox="0 0 45 45" enable-background="new 0 0 45 45" xml:space="preserve">
<g>
	<path fill="#FFFFFF" d="M36,39H10.5C4.7,39,0,34.3,0,28.5c0-4.2,2.5-7.8,6-9.5c0-0.3,0-0.7,0-1c0-6.6,5.4-12,12-12
		c5,0,9.3,3.1,11.1,7.5c1-0.9,2.4-1.5,3.9-1.5c3.3,0,6,2.7,6,6c0,1.2-0.4,2.3-1,3.2c4,0.9,7,4.5,7,8.8C45,35,41,39,36,39z"/>
</g>
<g>
</g>
<g>
</g>
<g>
</g>
<g>
</g>
<g>
</g>
<g>
</g>
<g>
</g>
<g>
</g>
<g>
</g>
<g>
</g>
<g>
</g>
<g>
</g>
<g>
</g>
<g>
</g>
<g>
</g>
</svg>
