<?xml version="1.0" encoding="utf-8"?>
<!-- Generator: Adobe Illustrator 16.0.0, SVG Export Plug-In . SVG Version: 6.00 Build 0)  -->
<!DOCTYPE svg PUBLIC "-//W3C//DTD SVG 1.1//EN" "http://www.w3.org/Graphics/SVG/1.1/DTD/svg11.dtd">
<svg version="1.1" id="Layer_1" xmlns="http://www.w3.org/2000/svg" xmlns:xlink="http://www.w3.org/1999/xlink" x="0px" y="0px"
	 width="45px" height="45px" viewBox="0 0 45 45" enable-background="new 0 0 45 45" xml:space="preserve">
<g>
	<path fill="#FFFFFF" d="M45,25.8c0,0.4-0.4,1-0.8,1.1l-5.4,0.8c-0.3,0.9-0.7,1.8-1.1,2.7c1,1.4,2.1,2.7,3.1,4
		c0.2,0.2,0.3,0.5,0.3,0.7c0,0.3-0.1,0.5-0.3,0.7c-0.7,0.9-4.7,5.2-5.7,5.2c-0.3,0-0.5-0.1-0.8-0.3l-4-3.2c-0.8,0.4-1.8,0.8-2.7,1.1
		c-0.2,1.8-0.4,3.7-0.8,5.4c-0.1,0.5-0.5,0.8-1.1,0.8h-6.5c-0.5,0-1-0.4-1.1-0.9l-0.8-5.4c-0.9-0.3-1.8-0.6-2.6-1.1l-4.1,3.1
		C10.4,41,10.1,41,9.9,41s-0.5-0.1-0.7-0.3c-1.6-1.4-3.6-3.2-4.8-4.9c-0.1-0.2-0.2-0.4-0.2-0.7c0-0.3,0.1-0.5,0.2-0.7
		c1-1.3,2.1-2.6,3.1-4c-0.5-0.9-0.9-1.9-1.2-2.9l-5.4-0.8C0.4,26.7,0,26.2,0,25.7v-6.5c0-0.4,0.4-1,0.8-1.1l5.4-0.8
		c0.3-0.9,0.7-1.8,1.1-2.7c-1-1.4-2.1-2.7-3.1-4C4.1,10.4,4,10.1,4,9.9s0.1-0.5,0.3-0.7C4.9,8.2,8.9,4,9.9,4c0.3,0,0.5,0.1,0.8,0.3
		l4,3.1c0.8-0.4,1.8-0.8,2.7-1.1c0.2-1.8,0.4-3.7,0.8-5.4C18.3,0.4,18.7,0,19.2,0h6.5c0.5,0,1,0.4,1.1,0.9l0.8,5.4
		c0.9,0.3,1.8,0.6,2.6,1.1l4.2-3.1C34.6,4,34.9,4,35.1,4s0.5,0.1,0.7,0.3c1.6,1.4,3.6,3.3,4.8,5c0.1,0.2,0.2,0.4,0.2,0.6
		c0,0.3-0.1,0.5-0.2,0.7c-1,1.3-2.1,2.6-3.1,4c0.5,0.9,0.9,1.9,1.2,2.9l5.4,0.8c0.5,0.1,0.8,0.6,0.8,1.1V25.8z M22.5,15
		c-4.1,0-7.5,3.4-7.5,7.5s3.4,7.5,7.5,7.5c4.1,0,7.5-3.4,7.5-7.5S26.6,15,22.5,15z"/>
</g>
<g>
</g>
<g>
</g>
<g>
</g>
<g>
</g>
<g>
</g>
<g>
</g>
<g>
</g>
<g>
</g>
<g>
</g>
<g>
</g>
<g>
</g>
<g>
</g>
<g>
</g>
<g>
</g>
<g>
</g>
</svg>
