<?xml version="1.0" encoding="utf-8"?>
<!-- Generator: Adobe Illustrator 16.0.0, SVG Export Plug-In . SVG Version: 6.00 Build 0)  -->
<!DOCTYPE svg PUBLIC "-//W3C//DTD SVG 1.1//EN" "http://www.w3.org/Graphics/SVG/1.1/DTD/svg11.dtd">
<svg version="1.1" id="Layer_1" xmlns="http://www.w3.org/2000/svg" xmlns:xlink="http://www.w3.org/1999/xlink" x="0px" y="0px"
	 width="45px" height="45px" viewBox="0 0 45 45" enable-background="new 0 0 45 45" xml:space="preserve">
<g>
	<path fill="#FFFFFF" d="M40.7,15.8c-3.9,2.7-7.9,5.4-11.8,8.1c-1.6,1.1-4.4,3.4-6.4,3.4h0h0c-2,0-4.8-2.3-6.4-3.4
		c-3.9-2.7-7.8-5.4-11.7-8.1C2.5,14.6,0,11.8,0,9.5C0,7.1,1.3,5,4,5h37c2.2,0,4,1.8,4,4C45,11.8,42.9,14.3,40.7,15.8z M45,36
		c0,2.2-1.8,4-4,4H4c-2.2,0-4-1.8-4-4V16.3c0.8,0.8,1.6,1.5,2.5,2.2c4.2,2.8,8.4,5.6,12.5,8.6c2.1,1.5,4.7,3.4,7.5,3.4h0h0
		c2.7,0,5.4-1.9,7.5-3.4c4.1-2.9,8.3-5.8,12.5-8.6c0.9-0.6,1.8-1.3,2.5-2.2V36z"/>
</g>
<g>
</g>
<g>
</g>
<g>
</g>
<g>
</g>
<g>
</g>
<g>
</g>
<g>
</g>
<g>
</g>
<g>
</g>
<g>
</g>
<g>
</g>
<g>
</g>
<g>
</g>
<g>
</g>
<g>
</g>
</svg>
